# xmcd CD database file
#
# Track frame offsets:
#	150
#	11560
#	33785
#	54607
#	78695
#	97127
#	119455
#	138355
#	157605
#	174847
#	196170
#	216257
#
# Disc length: 3220 seconds
#
# Revision: 5
# Processed by: cddbd v1.5.2PL0 Copyright (c) Steve Scherf et al.
# Submitted via: CDex 1.70beta2
#
DISCID=970c920c
DTITLE=山崎まさよし - アトリエ
DYEAR=2003
DGENRE=JPop
TTITLE0=君とピクニック
TTITLE1=未完成
TTITLE2=神様も知らない午後
TTITLE3=レイトショウへようこそ
TTITLE4=僕と不良と校庭で
TTITLE5=Doubt! Corridor
TTITLE6=サマエルの記憶
TTITLE7=オモイスゴシ
TTITLE8=最後の海
TTITLE9=アトリエ
TTITLE10=untitled
TTITLE11=全部、君だった。
EXTD=YEAR: 2003
EXTT0=
EXTT1=
EXTT2=
EXTT3=
EXTT4=
EXTT5=
EXTT6=
EXTT7=
EXTT8=
EXTT9=
EXTT10=
EXTT11=
PLAYORDER=
